<svg width="145" height="232" viewBox="0 0 145 232" fill="none" xmlns="http://www.w3.org/2000/svg">
<path d="M97.9116 23.7633C97.9116 23.7633 95.9927 20.3091 96.3763 17.0475C97.2831 12.1027 101.201 8.26204 106.163 7.45366C112.687 6.49382 97.9116 23.7633 97.9116 23.7633Z" fill="#884F27"/>
<path d="M101.365 27.0257C101.365 27.0257 98.1034 29.7119 97.1443 37.5794C96.6203 42.7572 96.7503 47.9804 97.531 53.1257C98.2983 57.7308 100.601 62.5277 99.8336 66.3656C98.8846 71.1403 100.316 76.0784 103.671 79.6054C103.671 79.6054 101.369 76.5356 102.712 71.3543C103.099 69.6272 105.015 66.5589 104.056 61.7635C103.097 56.7748 100.602 51.5935 101.37 48.5237C102.329 45.4539 103.097 42.7669 102.329 39.8889C101.561 37.0109 102.329 29.7189 103.096 29.1434C103.863 28.3762 102.329 28.3762 102.329 28.3762L101.365 27.0257Z" fill="#884F27"/>
<path d="M99.2543 27.0257C99.037 27.4304 98.9961 27.9067 99.1413 28.3425C99.2865 28.7783 99.6049 29.1349 100.022 29.3283L101.749 30.2874C102.153 30.5047 102.63 30.5456 103.065 30.4004C103.501 30.2551 103.858 29.9367 104.051 29.5201C104.269 29.1155 104.309 28.6391 104.164 28.2033C104.019 27.7676 103.701 27.411 103.284 27.2176L101.557 26.2585C101.15 26.0547 100.678 26.0211 100.247 26.165C99.8147 26.3089 99.4578 26.6185 99.2543 27.0257Z" fill="#93A100"/>
<path d="M98.487 18.391C99.4461 12.8268 102.133 7.07004 110 7.07004C118.251 7.07004 122.664 13.9777 122.856 18.391C123.07 21.1774 122.744 23.979 121.897 26.6421C121.51 27.6012 117.867 29.9045 117.102 32.7825C116.336 35.6605 98.487 18.391 98.487 18.391Z" fill="#884F27"/>
<path d="M118.059 76.9169C118.059 76.9169 114.221 83.2491 114.221 85.7435C114.029 88.046 114.989 92.843 114.989 92.843L93.8819 100.517C93.8819 100.517 93.6901 89.0043 93.4952 84.0148C93.3057 79.2187 92.3459 75.5727 92.3459 72.6939C92.1548 70.0077 118.251 73.4619 118.059 76.9169Z" fill="#EA9853"/>
<path d="M96.9518 100.517C96.9518 100.517 104.436 98.0227 107.505 96.8711C110.575 95.5284 117.484 93.4176 117.484 93.4176C119.594 96.4874 119.594 97.8309 121.897 104.355C124.2 110.879 120.938 117.978 118.827 120.474C116.716 122.969 118.252 126.998 118.635 131.411C119.022 135.632 115.373 147.53 114.797 152.71C114.606 156.356 116.525 163.074 116.908 166.334C117.484 169.98 118.444 174.393 117.1 181.88C115.757 189.171 112.111 205.865 113.454 212.199C114.797 218.533 114.413 217.188 114.413 217.188C114.413 217.188 109.424 220.45 107.122 219.874C104.819 219.487 105.203 217.571 105.203 217.571C105.203 217.571 107.889 196.464 104.627 177.467C101.366 158.471 99.6387 162.694 100.406 152.522V152.135C99.2584 144.768 98.6173 137.331 98.487 129.876C98.2952 118.941 98.6789 116.636 97.719 112.99C96.7599 108.964 97.1436 106.657 96.9518 100.517Z" fill="#EA9853"/>
<path d="M100.406 152.518V152.132C99.2586 144.765 98.6175 137.329 98.4871 129.876C98.2952 118.941 98.6789 116.636 97.719 112.99C96.7599 108.964 97.1467 106.466 96.7599 100.517C96.7599 100.517 104.244 98.0227 107.314 96.8711C109.526 95.9161 111.645 94.7601 113.646 93.4176C115.757 96.4874 119.786 97.8309 122.089 104.355C124.391 110.879 121.13 117.978 119.019 120.474C116.908 122.969 118.444 126.998 118.827 131.411C119.214 135.632 115.565 147.53 114.989 152.71C114.797 156.356 116.716 163.074 117.1 166.334C118.057 171.008 118.188 175.814 117.487 180.533C116.335 180.92 110.579 183.028 105.206 180.533C105.014 179.574 104.819 178.423 104.631 177.463C101.365 158.464 99.8298 162.496 100.406 152.518Z" fill="#4EB6F2"/>
<path d="M100.406 152.518V152.132C99.2586 144.765 98.6175 137.329 98.4871 129.876C98.2952 118.941 98.6789 116.636 97.719 112.99C96.7599 108.964 97.1467 106.466 96.7599 100.517C96.7599 100.517 104.244 98.0227 107.314 96.8711C109.526 95.9161 111.645 94.7601 113.646 93.4176C115.757 96.4874 119.786 97.8309 122.089 104.355C124.391 110.879 121.13 117.978 119.019 120.474C116.908 122.969 118.444 126.998 118.827 131.411C119.214 135.632 115.565 147.53 114.989 152.71C114.797 156.356 116.716 163.074 117.1 166.334C118.057 171.008 118.188 175.814 117.487 180.533C116.335 180.92 110.579 183.028 105.206 180.533C105.014 179.574 104.819 178.423 104.631 177.463C101.365 158.464 99.8298 162.496 100.406 152.518Z" fill="#EA9853"/>
<path d="M106.355 215.457C107.698 216.608 108.849 218.335 110.96 217.759C113.07 217.184 114.414 214.689 114.989 216.224C115.565 217.758 118.252 221.789 117.484 224.091C117.864 224.587 117.938 225.252 117.675 225.819C117.289 226.97 114.606 227.354 110.96 227.546C109.234 227.449 107.504 227.449 105.778 227.546C102.515 227.932 98.6781 228.889 96.1868 228.889C93.117 228.889 90.6218 228.122 90.2382 226.587C89.8515 225.243 89.4709 224.668 92.3489 224.092C95.0351 223.517 98.873 220.638 100.216 219.871C101.56 219.104 102.903 217.568 104.054 216.417C105.206 215.265 105.78 215.072 106.355 215.457Z" fill="#B6CDE9"/>
<path d="M106.355 215.457C107.698 216.608 108.849 218.335 110.96 217.759C113.07 217.184 114.414 214.689 114.989 216.224C115.565 217.758 118.252 221.789 117.484 224.091C117.864 224.587 117.938 225.252 117.675 225.819C117.289 226.97 114.606 227.354 110.96 227.546C109.234 227.449 107.504 227.449 105.778 227.546C102.515 227.932 98.6781 228.889 96.1868 228.889C93.117 228.889 90.6218 228.122 90.2382 226.587C89.8515 225.243 89.4709 224.668 92.3489 224.092C95.0351 223.517 98.873 220.638 100.216 219.871C101.56 219.103 102.903 217.568 104.054 216.417C105.206 215.265 105.78 215.072 106.355 215.457Z" fill="#DCBB52"/>
<path d="M93.882 99.9416C93.882 99.9416 101.558 97.4473 104.627 96.1038C107.697 94.7603 114.798 92.6504 114.798 92.6504C116.908 95.7202 120.171 97.0637 122.665 103.779C124.968 110.495 120.938 117.595 118.827 120.282C116.716 122.776 116.716 126.998 117.1 131.411C117.484 135.824 112.879 147.913 112.495 153.289C112.303 157.126 114.222 163.842 114.798 167.296C115.373 171.134 116.333 175.548 114.989 183.223C113.646 190.706 110.001 207.592 111.343 214.116C112.686 220.64 112.302 219.298 112.302 219.298C112.302 219.298 107.12 222.56 104.818 221.984C102.517 221.408 102.9 219.489 102.9 219.489C102.9 219.489 105.586 197.998 102.324 178.618C98.8699 159.238 97.3354 163.459 97.9108 153.094V152.708C96.7862 145.206 96.0818 137.648 95.8009 130.068C95.6091 118.939 95.9927 116.636 95.0336 112.799C93.882 108.769 94.2687 106.274 93.882 99.9416Z" fill="#FDB171"/>
<path d="M103.476 217.567C104.819 218.911 105.97 220.637 108.081 220.062C110.192 219.486 111.535 216.992 112.111 218.526C112.686 220.061 115.373 224.283 114.797 226.586C115.177 227.081 115.251 227.746 114.989 228.313C114.602 229.465 111.726 229.848 108.081 230.04C106.291 229.944 104.497 229.944 102.708 230.04C99.4453 230.427 95.4165 231.383 92.9213 231.383C89.8515 231.383 87.3564 230.616 86.7809 229.081C86.3942 227.546 86.0137 227.162 88.8917 226.587C91.5778 226.011 95.6075 223.132 96.951 222.173C98.3803 221.126 99.7274 219.972 100.981 218.719C102.517 217.376 102.9 216.992 103.476 217.567Z" fill="#FDD65B"/>
<path d="M117.675 28.561C117.248 30.6437 117.055 32.7676 117.1 34.8932C116.525 35.28 116.333 36.0449 115.565 36.4285C112.767 38.1372 109.618 39.187 106.355 39.4983C106.355 39.4983 106.93 38.7311 107.698 37.5794L117.675 28.561Z" fill="#EA9853"/>
<path d="M120.553 27.0257C120.553 27.0257 123.816 29.7119 124.775 37.5794C125.299 42.7572 125.169 47.9804 124.388 53.1257C123.621 57.7308 121.318 62.5277 122.086 66.3656C123.138 71.1429 121.694 76.1279 118.25 79.6023C118.25 79.6023 120.553 76.5325 119.209 71.3512C118.822 69.6241 116.907 66.5558 117.866 61.7605C118.825 56.7717 121.32 51.5904 120.552 48.5206C119.593 45.4508 118.825 42.7638 119.593 39.8858C120.361 37.0078 119.593 29.7158 118.826 29.1403C118.058 28.3731 119.593 28.3731 119.593 28.3731L120.553 27.0257Z" fill="#884F27"/>
<path d="M122.664 27.0257C122.882 27.4304 122.922 27.9067 122.777 28.3425C122.632 28.7783 122.314 29.1349 121.897 29.3283L120.17 30.2874C119.765 30.5047 119.289 30.5456 118.853 30.4004C118.417 30.2551 118.061 29.9367 117.867 29.5201C117.65 29.1155 117.609 28.6391 117.754 28.2033C117.899 27.7676 118.218 27.411 118.635 27.2176L120.362 26.2585C121.321 25.8718 122.281 26.0667 122.664 27.0257Z" fill="#00265F"/>
<path d="M117.867 28.7536C117.292 30.2889 117.1 32.5915 114.413 34.7022C111.726 36.8129 107.697 39.4976 106.354 39.4976C105.01 39.4976 104.051 39.8843 101.94 36.4278C99.8297 33.1654 98.2944 31.439 98.2944 27.9848C98.1026 24.5306 96.7591 17.6206 100.981 14.9368C104.244 13.0217 109.424 13.9785 112.111 16.6646C114.797 19.5426 114.989 20.5025 115.949 24.9158C115.949 24.9158 118.252 21.846 119.212 21.6534C120.171 21.4608 120.939 22.0401 120.363 23.9559C119.788 25.8718 119.404 25.4912 119.404 26.4503C119.471 27.2602 119.269 28.0697 118.829 28.7528C118.059 29.3291 117.867 28.7536 117.867 28.7536Z" fill="#FDB171"/>
<path d="M103.092 13.9777C103.092 13.9777 108.465 23.5684 115.948 25.1068L118.826 16.4736L111.919 11.2915L103.092 13.9777Z" fill="#884F27"/>
<path d="M104.627 14.1695C104.627 14.1695 100.981 19.7306 97.9108 21.269C97.9108 21.269 97.719 13.5933 101.94 10.1399L104.627 14.1695Z" fill="#884F27"/>
<path d="M94.6353 106.825C94.1712 106.671 94.0359 106.171 93.8974 105.516C93.7126 104.665 93.8974 104.447 93.8974 104.447V101.276C93.8974 101.276 95.0042 99.9726 99.1568 97.9701C103.309 95.9677 108.656 93.8492 112.254 93.3875C113.568 93.1918 114.905 93.1918 116.22 93.3875C117.419 94.9282 119.218 97.431 119.218 97.431C119.218 97.431 116.958 97.3537 108.888 100.474C99.8491 103.978 95.9292 106.79 95.0529 106.866C94.9141 106.911 94.7627 106.896 94.6353 106.825Z" fill="#FCB698"/>
<path d="M97.3983 130.422C97.4433 130.433 97.5031 130.385 97.5031 130.385C97.5031 130.385 97.5482 130.396 97.5631 130.336L97.5181 130.325C97.4884 130.444 97.4433 130.433 97.3983 130.422Z" fill="#FDD65B"/>
<path d="M93.6576 105.883C93.7778 105.977 94.9553 105.839 95.1362 105.884C96.0105 106.038 100.925 102.633 111.133 99.3428C120.244 96.4133 120.862 99.343 120.862 99.343C120.862 99.343 127.982 110.75 117.915 122.13C117.915 122.13 117.291 124.356 117.009 125.872C117.009 125.872 118.804 124.321 112.814 125.872C107.591 127.233 99.6345 129.711 97.6076 130.35L95.6942 130.351L95.6972 127.461C95.6972 127.461 94.4887 118.66 94.2634 111.881C94.1376 109.694 93.3313 107.768 93.6576 105.883Z" fill="#FDD65B"/>
<path d="M96.6239 126.804C96.5633 126.779 96.5075 126.743 96.4587 126.699C96.5217 126.72 96.5785 126.756 96.6239 126.804Z" fill="#FDD65B"/>
<path d="M117.675 28.3692C117.099 31.439 116.331 37.7712 119.21 41.0336C122.089 44.296 126.501 42.5689 130.723 50.8201C134.944 59.0712 136.671 63.097 139.742 68.2791C142.813 73.4612 145.691 79.7941 144.158 81.9049C142.815 84.0156 122.284 97.6391 119.789 99.1744C117.487 100.71 112.69 103.588 110.579 102.629C108.468 101.67 106.549 100.71 105.397 100.902C104.245 101.093 98.4894 101.861 98.2976 100.902C98.2976 99.9424 100.025 99.9424 100.792 99.558C101.559 99.3662 103.478 98.4064 103.094 98.2146C101.896 97.9294 100.677 97.737 99.4484 97.6391C98.873 97.6391 96.3786 99.1744 95.8024 98.5982C95.2262 98.022 95.0352 97.6391 96.3779 96.8711C97.7206 96.103 98.2929 95.721 98.2929 95.721C98.2929 95.721 95.0305 96.8726 94.6469 95.9128C94.2633 94.9529 94.6469 94.3775 96.1822 93.802C97.3338 93.4153 98.6765 92.2667 100.02 92.6504C100.991 92.7765 101.953 92.9687 102.898 93.2258C102.898 93.2258 101.171 92.0742 100.787 91.8823C100.401 91.4956 99.252 91.6905 98.2929 91.8823C97.3338 92.0742 96.1822 92.0742 95.9904 91.6905C95.7986 91.3069 95.6036 90.5389 97.3338 89.9634C98.4514 89.6135 99.6386 89.5475 100.788 89.7716C102.132 89.9634 103.858 90.9233 104.818 91.1151C105.778 91.3069 109.613 92.2667 109.806 92.2667C110 92.2667 109.998 91.88 109.42 90.3478C108.841 88.8156 108.652 87.4698 109.228 86.8936C109.803 86.3174 110.187 87.2803 111.147 89.0043C111.914 90.7315 113.449 94.3775 114.409 93.9931C117.322 92.1723 120.082 90.1191 122.664 87.8535C124.583 85.9345 129.38 77.876 131.874 77.108C127.887 73.992 124.779 69.8919 122.856 65.2108L121.321 68.6658L91.9623 67.3215C91.9623 67.3215 88.7022 63.4837 89.4679 59.0704C90.2336 54.6571 92.5385 52.7382 95.4165 50.2438C98.2945 47.7495 101.557 46.406 102.324 45.0617C102.988 43.5917 104.369 42.5737 105.97 42.3756C106.401 40.7443 106.658 39.0721 106.737 37.3868L117.675 28.3692Z" fill="#FDB171"/>
<path d="M97.7198 93.4184C98.3445 93.0155 99.1035 92.8764 99.8305 93.0317C100.802 93.1577 101.763 93.35 102.709 93.6071C102.709 93.6071 100.981 92.4555 100.598 92.2636C99.9748 92.085 99.3246 92.021 98.6788 92.0749L98.8707 91.8831C99.1012 91.3305 99.1012 90.7086 98.8707 90.156L98.6788 89.9642C99.3694 89.7724 100.099 89.7724 100.79 89.9642C102.133 90.156 103.859 91.1158 104.819 91.3077C105.779 91.4995 109.615 92.4593 109.808 92.4593C110.001 92.4593 110 92.0726 109.421 90.5404C110.161 90.5202 110.885 90.3229 111.532 89.965C112.299 91.6921 113.643 94.3782 114.41 94.1864C114.41 94.1864 113.258 95.3381 113.258 98.5997C113.258 101.094 113.45 102.054 113.645 102.438C112.686 102.629 111.726 102.824 111.151 102.438C109.04 101.478 107.121 100.519 105.969 100.71C105.582 100.71 104.433 100.902 103.091 101.097C103.091 101.097 102.515 98.9864 101.939 99.1783C102.706 98.7915 103.858 98.2192 103.474 98.0266C102.275 97.7414 101.057 97.5491 99.8282 97.4511H99.6387C99.4469 96.6839 99.0632 95.5322 98.1034 95.724L98.4901 95.5322H98.2952C98.2952 95.7209 99.2551 94.5693 97.7198 93.4184Z" fill="#FFB06D"/>
<path d="M118.059 76.9123C118.059 76.9123 110.96 74.8016 104.627 74.8016C98.2952 74.8016 93.3065 73.4619 92.1548 72.6947L91.963 67.3215L121.321 68.665L118.059 76.9123Z" fill="#FACC3C"/>
<path d="M89.6605 59.0704C90.4277 54.6571 92.7303 52.7382 95.6091 50.2438C95.6091 50.2438 91.963 54.4653 94.4574 55.0392C96.9518 55.6131 102.322 51.9709 106.355 48.7085C110.001 45.6387 115.945 43.1436 119.594 41.4173C120.82 42.4784 122.26 43.2637 123.816 43.7198C119.964 43.9755 116.568 46.3377 114.989 49.8602C111.535 56.7679 116.716 64.4435 121.897 67.1297L120.745 70.3921C120.745 70.3921 107.504 69.2405 103.284 69.0486C100.214 68.8568 92.1549 67.3215 92.1549 67.3215C92.1549 67.3215 88.7006 63.4837 89.6605 59.0704Z" fill="#FDD65B"/>
<path d="M70.9709 58.6257C70.4008 62.0466 74.7716 70.9784 74.7716 70.9784C76.4817 72.1185 78.0023 75.7297 79.5229 79.1499C80.6219 81.3329 82.4324 83.076 84.6555 84.0914C80.0921 85.8015 70.4024 100.245 69.6421 101.571C66.0316 108.033 54.6287 102.141 54.6287 102.141C53.4887 103.281 55.1988 105.752 57.6691 107.272C59.819 108.167 62.0453 108.866 64.3208 109.361C68.8841 110.121 68.3118 108.6 74.2031 106.13C80.0945 103.85 94.537 91.3069 98.7214 88.2634C102.906 85.2199 96.251 74.0103 91.8802 66.7886C87.6998 59.567 88.0795 54.4359 83.8983 51.2052L70.9709 58.6257Z" fill="#FDB171"/>
<path d="M70.4009 117.918C71.5404 124.138 72.3018 130.421 72.681 136.732C73.0608 145.472 61.8489 144.334 61.8489 144.334L51.3973 131.601L59.5688 121.529L70.4009 117.918Z" fill="#FDB171"/>
<path d="M31.4431 113.168C29.9911 120.576 28.9759 128.064 28.4027 135.592C27.8327 145.664 48.1666 138.823 48.1666 138.823L49.8767 136.352L50.637 114.498L31.4431 113.168Z" fill="#FDB171"/>
<path d="M29.3525 45.5134C36.3839 46.8438 43.0355 43.0431 43.225 39.2423C43.4145 35.4416 43.4153 36.2019 43.4153 36.2019L50.637 36.3922V118.108L38.473 121.909L31.6318 113.547C31.6318 113.547 36.0026 93.9737 31.2521 89.0291C26.5016 84.0845 24.7915 73.8316 23.0814 68.1282L29.3525 45.5134Z" fill="#FDB171"/>
<path d="M29.3525 45.5134C36.3839 46.8438 43.0355 43.0431 43.225 39.2423C43.4145 35.4416 43.4153 36.2019 43.4153 36.2019L50.637 36.3922V118.108L38.473 121.909L31.6318 113.547C31.6318 113.547 36.0026 93.9737 31.2521 89.0291C26.5016 84.0845 24.7915 73.8316 23.0814 68.1282L29.3525 45.5134Z" fill="#FDB171"/>
<path d="M33.154 62.6167C33.724 66.0376 26.1226 70.9784 26.1226 70.9784C24.4117 72.1185 22.8927 75.7328 21.3713 79.1499C20.2729 81.3325 18.4633 83.0755 16.241 84.0914C20.8044 85.8015 32.3945 102.906 33.5345 104.046C34.6746 105.187 35.4349 101.006 35.4349 101.006C33.7248 98.9176 36.3854 96.6352 37.3352 95.6846C38.285 94.734 40.1862 95.1146 42.4663 97.7729C44.5546 100.434 41.136 105.755 37.9029 108.605C34.8625 111.456 32.0116 109.365 26.1203 107.084C20.2312 104.616 6.54819 91.3123 2.17744 88.2719C-2.00304 85.2315 4.64783 74.0188 9.01858 66.7971C13.1991 59.5755 12.8193 54.4444 17.0005 51.2137L33.154 62.6167Z" fill="#FDB171"/>
<path d="M78.1933 67.7477C76.4832 73.4488 74.7724 83.7109 70.0219 88.6517C65.2714 93.5924 69.6421 113.17 69.6421 113.17L66.9814 118.871L50.4475 117.728V36.2011L57.6692 36.0109C57.6692 36.0109 57.6692 35.2506 57.8594 39.0513C58.0497 42.852 62.9905 44.3726 68.8818 45.3224L78.1933 67.7477Z" fill="#FDB171"/>
<path d="M54.8182 41.3322L57.6691 38.4813C57.4789 35.2506 57.4789 36.0109 57.4789 36.0109L50.4475 36.2011L43.2258 36.0109C43.2258 36.0109 43.2258 35.2506 43.0355 38.4813C43.9362 39.48 44.8877 40.4315 45.8864 41.3322C47.0265 42.6625 48.9269 42.0925 49.4969 42.0925H51.3973C51.9673 42.2828 53.8676 42.6625 54.8182 41.3322Z" fill="#EA9853"/>
<path d="M62.7994 21.7586H62.6091C62.7994 20.9983 62.7994 20.0485 62.9889 19.2882C63.5597 15.1069 64.6998 3.13475 50.6339 3.13475C36.568 3.13475 37.7173 15.1069 38.2843 19.2882C38.4745 20.0485 38.4745 20.9983 38.664 21.7586H38.4737C36.3854 20.238 36.1936 24.4192 36.9532 25.7496C37.5235 26.5422 37.9127 27.4505 38.0932 28.4102C38.473 29.3608 39.0438 29.5503 39.4235 29.3608C39.4235 29.9308 39.6138 30.5008 39.6138 30.8814C39.8041 33.1615 45.1246 37.533 46.2654 38.8633C47.4063 40.1937 49.3059 39.6236 49.8759 39.6236H51.7763C52.3463 39.6236 54.2466 40.1937 55.3867 38.8633C56.5268 37.533 61.8481 32.972 62.0383 30.8814C62.0186 30.3675 62.0828 29.8539 62.2286 29.3608C62.6084 29.551 63.1792 29.3608 63.5589 28.4102C63.7394 27.4505 64.1286 26.5422 64.699 25.7496C65.0795 24.4192 64.89 20.0485 62.7994 21.7586Z" fill="#FDB171"/>
<path d="M60.5193 0.0943298C60.5193 0.0943298 61.0893 1.61493 49.1171 1.61493H48.3568C36.9547 2.18264 37.5216 13.2073 37.5216 13.2073C37.5216 16.0583 38.0917 18.7182 38.4722 21.5691L38.6625 20.2387C38.6625 20.2387 38.8527 18.9084 39.2325 17.1983V17.0081C39.4228 16.6283 39.6122 16.0575 39.8025 15.6777C43.0332 9.40663 50.4444 11.4973 50.4444 11.4973C50.4444 11.4973 57.8555 9.40895 60.8967 15.868C61.087 16.2478 61.2765 16.8186 61.4668 17.1983C61.5175 17.1973 61.5666 17.217 61.6025 17.2529C61.6384 17.2888 61.6581 17.3378 61.657 17.3886C61.9941 18.3689 62.1862 19.3932 62.2271 20.429L62.4173 21.7593C62.8425 20.0066 63.1599 18.2295 63.3679 16.438C64.1488 10.8263 63.1527 5.11094 60.5193 0.0943298Z" fill="#37120B"/>
<path d="M28.9727 129.891C27.8327 139.013 27.0724 157.637 28.4027 164.288C29.5428 170.939 28.7825 173.22 27.2626 177.591C25.7428 181.963 26.3121 189.563 28.0229 198.306C29.7338 207.048 30.8739 210.848 26.5024 215.029C26.5024 215.029 27.2626 226.812 29.5428 224.531C31.8229 222.25 33.7232 220.54 35.6244 220.16C37.5247 219.59 38.8551 216.929 37.5247 213.889C36.182 210.712 35.7861 207.214 36.3847 203.817C37.145 200.016 42.0858 191.085 42.0858 185.384C42.0858 179.682 40.3757 181.013 42.0858 174.551C46.2165 160.685 48.8291 146.41 49.8775 131.979L28.9727 129.891Z" fill="#FDB171"/>
<path d="M71.9214 129.891C73.0615 139.013 73.8218 157.637 72.4915 164.288C71.3514 170.939 72.1117 173.22 73.6315 177.591C75.1513 181.963 74.5821 189.563 72.8712 198.306C71.1603 207.048 72.4915 209.708 73.6315 215.409C74.5821 220.54 73.4412 226.624 71.1611 224.531C68.881 222.251 66.9806 220.54 65.0795 220.16C63.1792 219.59 61.8488 216.929 63.1792 213.889C64.5219 210.712 64.9178 207.214 64.3192 203.817C63.5589 200.016 58.6181 191.085 58.6181 185.384C58.6181 179.682 60.3282 181.013 58.6181 174.551C54.4876 160.685 51.8754 146.41 50.8272 131.979L71.9214 129.891Z" fill="#FDB171"/>
<path d="M12.6298 58.2459C12.6298 58.2459 16.6208 43.9928 28.4027 43.9928C36.5742 43.9928 38.855 45.3232 43.0355 41.5225C47.216 37.7217 43.0355 51.2145 43.0355 51.2145L23.6522 65.4676L12.6298 58.2459Z" fill="#FDB171"/>
<path d="M88.2644 58.2459C88.2644 58.2459 84.2734 43.9928 72.4915 43.9928C64.32 43.9928 62.0391 45.3232 57.8587 41.5225C53.6782 37.7217 57.8587 51.2145 57.8587 51.2145L77.242 65.2773L88.2644 58.2459Z" fill="#FDB171"/>
<path d="M31.4431 113.168C28.5586 130.408 26.592 147.789 25.5518 165.238L47.0265 166.569L50.637 137.686V114.688L31.4431 113.168Z" fill="#FDD65B"/>
<path d="M69.4511 113.168C72.3356 130.408 74.3022 147.789 75.3424 165.238L54.0579 166.569L50.4475 137.686V114.688L69.4511 113.168Z" fill="#FDD65B"/>
<path d="M65.0803 213.698C63.3702 209.327 62.4197 205.526 69.2608 205.526C74.9619 205.526 74.0121 209.517 72.3012 213.698H65.0803Z" fill="#338D7D"/>
<path d="M64.1297 210.657C64.1297 210.657 62.7994 210.087 62.7994 213.887C62.9897 217.498 62.0391 221.109 63.5597 223.199C65.0803 225.289 70.0211 232.891 76.1019 231.181C82.1827 229.471 79.9026 224.91 78.7625 222.819C77.0525 219.968 74.5821 218.639 74.7716 215.788C74.9611 212.937 75.7221 210.657 72.4914 210.657H64.1297Z" fill="#FDD65B"/>
<path d="M35.8139 213.698C37.524 209.327 38.4745 205.526 31.6334 205.526C25.9323 205.526 26.8821 209.517 28.593 213.698H35.8139Z" fill="#338D7D"/>
<path d="M36.7644 210.657C36.7644 210.657 38.0947 210.087 38.0947 213.887C37.9045 217.498 38.855 221.109 37.3344 223.199C35.8138 225.289 30.8731 232.892 24.7938 231.181C18.7145 229.47 20.9931 224.91 22.1331 222.819C23.8432 219.968 26.3136 218.639 26.1241 215.788C25.9346 212.937 25.1735 210.657 28.4042 210.657H36.7644Z" fill="#FDD65B"/>
<path d="M28.2124 109.366C29.163 109.746 29.733 121.529 29.3525 123.429C28.972 125.329 32.3929 123.239 32.9629 117.158C33.533 111.077 33.1532 111.457 34.103 112.027C35.0528 112.597 36.7637 114.878 37.9037 114.307C39.0438 113.736 39.0438 112.407 37.1434 110.506C34.2925 107.846 34.8633 106.705 31.6326 102.714C28.4019 98.7235 26.5023 100.815 26.5023 100.815L28.2124 109.366Z" fill="#FDB171"/>
<path d="M72.681 109.366C71.7304 109.746 71.1604 121.529 71.5409 123.429C71.7312 125.329 68.5005 123.239 67.9305 117.158C67.3605 111.077 67.7402 111.457 66.7904 112.027C65.8406 112.597 64.1298 114.876 62.992 114.307C61.8543 113.738 61.852 112.407 63.7523 110.506C66.6032 107.846 66.0324 106.705 69.2631 102.714C72.4938 98.7235 74.3942 100.814 74.3942 100.814L72.681 109.366Z" fill="#FDB171"/>
<path d="M70.6615 83.9305C67.2134 85.8581 63.0599 86.0529 59.4465 84.4565C57.5191 83.5802 56.1207 82.529 54.8909 82.0031C53.4902 81.4876 52.0025 81.2496 50.5109 81.3024C49.6891 81.2671 48.8659 81.326 48.0575 81.4779L45.9553 82.0039C44.5538 82.3542 43.3256 83.5809 41.3997 84.4572C37.8034 86.142 33.6076 85.9453 30.1847 83.9313C33.577 84.1671 36.9553 83.3071 39.8219 81.4779C41.2654 80.3222 42.7876 79.2683 44.3775 78.3238C45.3075 77.8491 46.3179 77.552 47.3568 77.4475C48.4079 77.2719 49.459 77.2719 50.3353 77.0971C52.4421 77.0803 54.5298 77.4979 56.468 78.3238C58.3954 79.2001 59.7938 80.6016 61.0236 81.4779C63.8652 83.3647 67.2637 84.2296 70.6615 83.9305Z" fill="#EA9853"/>
<path d="M63.1273 94.7944C61.028 95.9335 58.5429 96.1248 56.2939 95.3203C55.0673 94.9699 54.1917 94.2692 53.3154 94.0936C52.3955 93.8799 51.4559 93.7625 50.5117 93.7433C49.5631 93.6754 48.6105 93.7944 47.7079 94.0936C46.8316 94.2692 45.9561 94.9699 44.7294 95.3203C42.4804 96.1248 39.9953 95.9335 37.896 94.7944C39.9644 94.8079 42.0062 94.3274 43.8515 93.3929C44.7728 92.695 45.7724 92.107 46.83 91.641C48.0225 91.2551 49.2585 91.0196 50.5093 90.9403C51.771 90.9177 53.0236 91.1563 54.1886 91.641C55.2252 92.1472 56.221 92.7329 57.1672 93.3929C58.9758 94.4285 61.0467 94.9155 63.1273 94.7944Z" fill="#EA9853"/>
<path d="M60.4992 103.201C58.8755 104.21 56.8939 104.466 55.0673 103.902C54.0161 103.551 53.3154 103.201 52.7895 103.025C52.0998 102.873 51.3927 102.814 50.6872 102.85C48.9354 102.85 48.2339 103.2 46.1316 103.901C44.3162 104.579 42.2833 104.317 40.6989 103.201C42.3133 103.137 43.8831 102.654 45.2545 101.799C45.979 101.278 46.7402 100.81 47.5323 100.398C49.4557 99.6976 51.5645 99.6976 53.4879 100.398C54.3158 100.743 55.0844 101.216 55.7657 101.799C57.1912 102.678 58.8249 103.162 60.4992 103.201Z" fill="#EA9853"/>
<path d="M59.0969 110.389C57.7056 111.322 55.9679 111.579 54.3657 111.089C53.221 110.524 51.9633 110.224 50.6865 110.213C49.285 110.213 48.759 110.389 46.8316 111.089C45.2308 111.594 43.4871 111.335 42.1012 110.389C43.482 110.246 44.8062 109.765 45.9561 108.987C46.545 108.5 47.1925 108.088 47.8835 107.76C48.7229 107.434 49.6128 107.256 50.5132 107.234C51.4154 107.239 52.3082 107.418 53.1429 107.76C53.857 108.044 54.511 108.46 55.0703 108.987C56.2463 109.839 57.6464 110.326 59.0969 110.389Z" fill="#EA9853"/>
<path d="M23.8239 54.3563C27.0043 55.6007 29.8815 57.8128 31.2443 61.1309L31.6984 62.3753L32.0015 63.4814C32.1889 64.1059 32.4427 64.7085 32.7588 65.2789C33.2836 66.4151 34.125 67.376 35.182 68.0463C36.3498 68.7357 37.6345 69.2045 38.9719 69.4292L40.0322 69.5676H41.2435C42.0033 69.5904 42.7636 69.5441 43.5151 69.4292C44.9997 69.3145 46.444 68.8906 47.7551 68.1847C49.0041 67.3516 49.8747 66.0601 50.1783 64.5897C50.501 66.2707 49.9276 67.9986 48.6639 69.1531C47.3483 70.3856 45.7276 71.2448 43.9691 71.642C43.0721 71.8476 42.161 71.9861 41.2435 72.0566C40.7895 72.0566 40.3347 72.195 40.0322 72.195H38.6656C36.6909 72.233 34.7466 71.7054 33.0619 70.6744C31.3675 69.7378 30.0744 68.2134 29.4267 66.3888C29.0374 65.6071 28.7814 64.7659 28.6695 63.8998L28.5149 62.7938C28.5149 62.5169 28.3602 62.1023 28.3602 61.8262C27.7615 59.4718 25.9439 56.8452 23.8239 54.3563Z" fill="#EA9853"/>
<path d="M77.4276 54.3563C75.289 56.8498 73.456 59.3434 72.8449 61.9763C72.8449 62.2531 72.6902 62.6724 72.6902 62.9462L72.5356 64.0545C72.3514 64.9056 72.096 65.7397 71.7722 66.5481C71.0147 68.3189 69.7359 69.817 68.106 70.843C66.4048 71.8766 64.4447 72.4051 62.4544 72.3667H61.0839C60.6717 72.3893 60.2586 72.3425 59.8619 72.2283L57.1123 71.8129C55.3407 71.4163 53.7065 70.5557 52.3772 69.3194C51.1677 68.1264 50.6002 66.4279 50.8497 64.7475C51.1582 66.2232 52.0365 67.5176 53.2937 68.3495C54.5916 69.1188 56.0629 69.5477 57.5709 69.5962C58.3288 69.7113 59.0956 69.7576 59.8619 69.7347H61.0839L62.1528 69.5962C63.5062 69.3968 64.8051 68.9253 65.9713 68.2102C67.0051 67.5059 67.8455 66.5533 68.4154 65.4397C68.7209 64.886 68.8733 64.1929 69.1788 63.6384L69.4843 62.53L69.9422 61.2832C71.3928 58.0533 74.0951 55.5526 77.4276 54.3563Z" fill="#EA9853"/>
</svg>
