<svg width="13" height="13" viewBox="0 0 13 13" fill="none" xmlns="http://www.w3.org/2000/svg">
<path fill-rule="evenodd" clip-rule="evenodd" d="M12.6255 0.625582C12.1531 0.153102 11.387 0.153166 10.9144 0.625723L6.92345 4.61668L3.00887 0.702095C2.53639 0.229615 1.77029 0.229678 1.29773 0.702236C0.825174 1.17479 0.82511 1.9409 1.29759 2.41338L5.21217 6.32796L1.22122 10.3189C0.748659 10.7915 0.748596 11.5576 1.22108 12.0301C1.69356 12.5025 2.45966 12.5025 2.93222 12.0299L6.92317 8.03896L10.8377 11.9535C11.3102 12.426 12.0763 12.426 12.5489 11.9534C13.0214 11.4808 13.0215 10.7147 12.549 10.2423L8.63445 6.32768L12.6254 2.33672C13.098 1.86417 13.098 1.09806 12.6255 0.625582Z" fill="#338D7D"/>
</svg>
