<svg width="20" height="22" viewBox="0 0 20 22" fill="none" xmlns="http://www.w3.org/2000/svg">
<path d="M5.75 6C5.33579 6 5 6.33579 5 6.75C5 7.16421 5.33579 7.5 5.75 7.5H13.75C14.1642 7.5 14.5 7.16421 14.5 6.75C14.5 6.33579 14.1642 6 13.75 6H5.75Z" fill="#515150"/>
<path d="M5.75 10C5.33579 10 5 10.3358 5 10.75C5 11.1642 5.33579 11.5 5.75 11.5H13.75C14.1642 11.5 14.5 11.1642 14.5 10.75C14.5 10.3358 14.1642 10 13.75 10H5.75Z" fill="#515150"/>
<path d="M5.75 14C5.33579 14 5 14.3358 5 14.75C5 15.1642 5.33579 15.5 5.75 15.5H13.75C14.1642 15.5 14.5 15.1642 14.5 14.75C14.5 14.3358 14.1642 14 13.75 14H5.75Z" fill="#515150"/>
<path fill-rule="evenodd" clip-rule="evenodd" d="M14.2135 0.123728C13.0714 -1.45286e-05 11.6318 -8.0335e-06 9.79525 1.32337e-07H9.70475C7.86821 -8.0335e-06 6.42861 -1.45286e-05 5.28648 0.123728C4.12094 0.250006 3.17656 0.512324 2.37024 1.09815C1.88209 1.45281 1.45281 1.88209 1.09815 2.37024C0.512324 3.17656 0.250006 4.12094 0.123728 5.28648C-1.45286e-05 6.42861 -8.0335e-06 7.86821 1.32338e-07 9.70475V11.7952C-8.0335e-06 13.6318 -1.45286e-05 15.0714 0.123728 16.2135C0.250006 17.3791 0.512324 18.3234 1.09815 19.1298C1.45281 19.6179 1.88209 20.0472 2.37024 20.4018C3.17656 20.9877 4.12094 21.25 5.28648 21.3763C6.42859 21.5 7.86817 21.5 9.70465 21.5H9.79527C11.6318 21.5 13.0714 21.5 14.2135 21.3763C15.3791 21.25 16.3234 20.9877 17.1298 20.4018C17.6179 20.0472 18.0472 19.6179 18.4018 19.1298C18.9877 18.3234 19.25 17.3791 19.3763 16.2135C19.5 15.0714 19.5 13.6318 19.5 11.7953V9.70473C19.5 7.86824 19.5 6.42859 19.3763 5.28648C19.25 4.12094 18.9877 3.17656 18.4018 2.37024C18.0472 1.88209 17.6179 1.45281 17.1298 1.09815C16.3234 0.512324 15.3791 0.250006 14.2135 0.123728ZM3.25191 2.31168C3.75992 1.94259 4.41013 1.72745 5.44804 1.615C6.49999 1.50103 7.85843 1.5 9.75 1.5C11.6416 1.5 13 1.50103 14.052 1.615C15.0899 1.72745 15.7401 1.94259 16.2481 2.31168C16.6089 2.57382 16.9262 2.89111 17.1883 3.25191C17.5574 3.75992 17.7725 4.41013 17.885 5.44804C17.999 6.49999 18 7.85843 18 9.75V11.75C18 13.6416 17.999 15 17.885 16.052C17.7725 17.0899 17.5574 17.7401 17.1883 18.2481C16.9262 18.6089 16.6089 18.9262 16.2481 19.1883C15.7401 19.5574 15.0899 19.7725 14.052 19.885C13 19.999 11.6416 20 9.75 20C7.85843 20 6.49999 19.999 5.44804 19.885C4.41013 19.7725 3.75992 19.5574 3.25191 19.1883C2.89111 18.9262 2.57382 18.6089 2.31168 18.2481C1.94259 17.7401 1.72745 17.0899 1.615 16.052C1.50103 15 1.5 13.6416 1.5 11.75V9.75C1.5 7.85843 1.50103 6.49999 1.615 5.44804C1.72745 4.41013 1.94259 3.75992 2.31168 3.25191C2.57382 2.89111 2.89111 2.57382 3.25191 2.31168Z" fill="#515150"/>
</svg>
